<?xml version="1.0" standalone="no"?>
<!DOCTYPE svg PUBLIC "-//W3C//DTD SVG 20010904//EN"
 "http://www.w3.org/TR/2001/REC-SVG-20010904/DTD/svg10.dtd">
<svg version="1.0" xmlns="http://www.w3.org/2000/svg"
 width="700.000000pt" height="700.000000pt" viewBox="0 0 700.000000 700.000000"
 preserveAspectRatio="xMidYMid meet">
<metadata>
Created by potrace 1.11, written by Peter Selinger 2001-2013
</metadata>
<g transform="translate(0.000000,700.000000) scale(0.100000,-0.100000)"
fill="#000000" stroke="none">
<path d="M3374 6326 c-50 -16 -108 -47 -284 -155 -541 -331 -1154 -529 -1800
-581 -162 -13 -220 -36 -266 -102 l-29 -41 1 -371 c1 -401 16 -638 60 -966
155 -1160 645 -2083 1486 -2797 305 -260 721 -585 788 -617 60 -29 73 -31 170
-31 151 0 173 13 520 290 460 368 622 510 793 694 643 690 1009 1495 1137
2503 40 312 52 530 54 919 l1 376 -28 40 c-47 69 -100 89 -262 102 -661 54
-1279 255 -1830 597 -217 134 -250 148 -370 151 -64 2 -115 -2 -141 -11z m304
-1306 c326 -41 612 -187 850 -434 202 -209 333 -475 378 -771 19 -122 13 -372
-11 -485 -83 -379 -298 -697 -610 -903 -154 -102 -314 -169 -494 -210 -140
-31 -442 -31 -582 0 -180 41 -340 108 -494 210 -312 206 -529 527 -610 903
-24 113 -30 363 -11 485 66 432 324 810 701 1028 147 86 349 155 515 176 94
12 273 13 368 1z"/>
<path d="M3310 4575 c-366 -73 -663 -352 -762 -716 -20 -72 -23 -108 -23 -249
0 -142 3 -177 23 -250 21 -75 82 -219 111 -260 9 -12 136 111 686 660 371 371
675 678 675 681 0 11 -112 66 -190 94 -41 15 -108 33 -148 41 -90 17 -284 17
-372 -1z"/>
<path d="M3650 3454 c-656 -658 -672 -676 -651 -690 40 -29 168 -83 247 -106
69 -20 101 -23 254 -23 153 0 185 3 254 23 345 100 605 361 698 703 20 72 23
108 23 249 0 141 -3 177 -23 250 -23 85 -105 270 -120 270 -5 0 -311 -304
-682 -676z"/>
</g>
</svg>
